<?xml version="1.0" encoding="utf-8"?>
<!-- Generator: Adobe Illustrator 17.0.0, SVG Export Plug-In . SVG Version: 6.00 Build 0)  -->
<!DOCTYPE svg PUBLIC "-//W3C//DTD SVG 1.1//EN" "http://www.w3.org/Graphics/SVG/1.1/DTD/svg11.dtd">
<svg version="1.1" id="Layer_1" xmlns="http://www.w3.org/2000/svg" xmlns:xlink="http://www.w3.org/1999/xlink" x="0px" y="0px"
	 width="1024px" height="1024px" viewBox="0 0 1024 1024" enable-background="new 0 0 1024 1024" xml:space="preserve">
<path fill="#ED1F24" stroke="#FFFFFF" stroke-width="17" stroke-miterlimit="10" d="M766.086,506.84
	C745.016,582.051,679.712,638.777,600,647.179v0c0,0-31-2.179-37-21.179s47.058-71,47-123c-0.042-38.021-19-60.417-19-60.417
	S596,510,560,558c-21.575,28.767-48,72.806-87.184,58.292l0,0c-52.517-34.672-87.174-94.206-87.174-161.844
	c0-2.929,0.077-5.84,0.205-8.738c-9.537-2.037-19.407-3.126-29.529-3.126c-80.092,0-145.045,71.274-145.045,153.424
	c0,5.159,0.254-9.007,0.761,19.993c-0.196,0-0.423,0-0.619,0c-47.333,0-85.675,39.244-85.675,87.733
	c0,43.133,27.43,86.267,70.197,86.267c42.766,0,618.972,0,618.972,0c49.61-29,84.426-76.997,84.426-135.917
	C899.336,577.287,840.178,510.25,766.086,506.84z"/>
<text transform="matrix(1 0 0 1 218.7197 908.5996)" font-family="'Haptic-Bold'" font-size="123.1686">CloudFIRE</text>
<g id="fire">
	<g>
		<g>
			<path fill="#ED8623" d="M603.231,639.306c-18.562-0.002-22.973-7.888-24.421-10.479c-7.346-13.135,3.847-31.351,18.016-54.413
				c9.986-16.254,21.306-34.677,24.623-49.995c10.208-47.137-14.239-83.597-38.282-106.847
				c4.008,32.404,1.501,80.036-12.013,107.934c-12.185,25.156-44.902,83.668-85.433,83.668c-8.385,0-16.536-2.511-24.228-7.464
				c-40.564-26.118-63.857-72.489-68.948-106.858c-3.916-26.438-2.642-53.223,3.684-77.458
				c10.474-40.125,34.18-73.345,70.458-98.736l21.798-15.256l-8.915,25.068c-1.132,3.181-2.444,6.673-3.833,10.371
				c-7.894,21.005-21.106,56.162-11.339,70.869c3.378,5.086,9.766,7.744,19.53,8.123c0.762,0.03,1.501,0.045,2.23,0.045
				c0.004,0,0.008,0,0.012,0c8.758-0.001,14.784-2.125,18.422-6.493c11.498-13.803,4.448-52.199-3.715-96.658
				c-2.069-11.267-4.208-22.917-6.248-35.141c-6.292-37.574,3.386-76.057,27.989-111.283c18.379-26.315,38.456-41.498,39.302-42.132
				l15.611-11.694l-2.063,19.396c-3.36,31.593,7.494,77.931,28.327,120.929c19.341,39.919,43.465,68.872,60.028,72.045
				c1.04,0.199,1.976,0.3,2.783,0.3c1.945,0,2.264-0.501,2.496-0.867c0.915-1.441,7.981-16.131-25.392-87.306
				c-0.409-0.873-0.735-1.568-0.963-2.063l-8.523-18.522l19.156,6.983c41.061,14.968,77.682,51.042,100.473,98.974
				c22.254,46.801,29.222,99.764,19.114,145.308c-9.775,44.048-28.901,83.189-55.31,113.19
				c-24.572,27.914-54.581,46.576-84.509,52.556c-12.347,2.629-22.132,3.907-29.908,3.907
				C603.237,639.306,603.235,639.306,603.231,639.306z"/>
			<path fill="#FFFFFF" d="M567.016,132.973c-7.774,73.078,53.716,194.272,95.208,202.221c1.593,0.305,3.049,0.452,4.385,0.452
				c33.438,0-11.56-92.339-16.138-102.289c82.881,30.213,134.273,144.004,114.2,234.455
				c-20.073,90.451-77.893,148.233-133.238,159.262c-12.002,2.558-21.237,3.732-28.198,3.732
				c-49.668,0,16.842-59.887,26.523-104.588c12.648-58.406-22.887-103.518-60.53-131.597c9.524,21.716,11.548,91.527-5.721,127.179
				c-14.449,29.831-44.663,78.874-77.784,78.874c-6.463,0-13.038-1.868-19.626-6.11c-40.353-25.983-60.728-71.16-65.142-100.958
				c-4.414-29.797-9.789-111.716,70.608-167.984c-11.35,31.913-42.367,98.589,12.036,100.704c0.88,0.034,1.732,0.051,2.573,0.051
				c51.159,0,31.034-63.141,16.842-148.191C488.539,191.757,567.016,132.973,567.016,132.973 M588.047,95.979l-31.223,23.388
				c-0.89,0.667-22.023,16.647-41.174,44.067c-11.373,16.284-19.791,33.34-25.02,50.696c-6.645,22.057-8.12,44.553-4.383,66.863
				c0.686,4.111,1.383,8.156,2.084,12.141l-26.517,18.559c-37.978,26.58-62.811,61.421-73.809,103.553
				c-6.613,25.332-7.95,53.29-3.868,80.85c2.777,18.747,10.319,39.346,21.238,58.004c13.259,22.658,31.073,41.592,51.517,54.756
				c9.086,5.851,18.786,8.817,28.83,8.817c19.866,0,39.677-11.535,58.883-34.284c16.241-19.236,28.399-42.202,34.2-54.18
				c11.93-24.63,14.272-58.13,14.605-75.907c0.069-3.683,0.065-7.581-0.026-11.589c3.839,5.072,7.198,10.24,10.031,15.453
				c11.342,20.863,14.614,42.884,9.727,65.453c-3.011,13.901-13.927,31.67-23.558,47.346c-6.333,10.308-12.315,20.045-16.319,28.922
				c-4.013,8.897-8.574,22.111-1.873,34.092c5.502,9.838,16.215,14.827,31.841,14.827c8.373,0,18.72-1.335,31.632-4.082
				c31.727-6.353,63.391-25.976,89.173-55.265c27.354-31.074,47.143-71.52,57.228-116.964c10.51-47.357,3.316-102.321-19.736-150.8
				c-11.439-24.057-26.022-45.13-43.345-62.635c-18.604-18.8-39.428-32.485-61.893-40.674l-38.311-13.966l17.046,37.044
				c0.234,0.509,0.568,1.222,0.988,2.118c21.306,45.441,25.371,66.202,25.849,74.692c-12.156-5.756-32.513-29.22-50.42-66.178
				c-20.179-41.649-30.726-86.221-27.524-116.323L588.047,95.979L588.047,95.979z M486.172,409.376
				c-0.627,0-1.252-0.012-1.913-0.038c-4.637-0.18-10.619-1.078-12.78-4.332c-1.224-1.842-3.706-7.869-0.339-24.003
				c2.708-12.976,8.167-27.502,12.554-39.174c1.403-3.733,2.728-7.259,3.885-10.511l5.079-14.282
				c4.385,23.883,8.153,44.524,9.185,61.03c1.181,18.891-1.863,25.577-3.782,27.881
				C496.165,408.222,492.165,409.376,486.172,409.376L486.172,409.376z"/>
		</g>
	</g>
</g>
</svg>
